<svg preserveAspectRatio="none" width="100%" height="100%" overflow="visible" style="display: block;" viewBox="0 0 191 191" fill="none" xmlns="http://www.w3.org/2000/svg">
<g id="cat-detective">
<path id="Vector" d="M148.695 88.5166C148.621 88.4683 148.543 88.4135 148.471 88.3745C148.093 88.1175 147.679 87.9158 147.244 87.7755C146.831 87.6323 146.397 87.5585 145.96 87.557C145.505 87.551 145.051 87.6069 144.61 87.7232C144.135 87.86 143.68 88.0571 143.256 88.3096C142.248 88.9187 141.412 89.7731 140.824 90.793C140.183 91.903 139.792 93.1402 139.681 94.4174C139.589 95.6496 139.681 96.8885 139.954 98.0936C140.278 99.4863 140.708 100.852 141.24 102.179C142.497 105.446 144.256 108.868 145.559 112.764C146.259 114.796 146.721 116.903 146.935 119.043C147.136 121.302 146.939 123.579 146.355 125.771L146.353 125.78L146.102 126.589C146.021 126.876 145.92 127.157 145.798 127.43C145.569 128.025 145.286 128.599 144.954 129.143C144.649 129.674 144.297 130.177 143.904 130.647L143.331 131.335C143.137 131.561 142.92 131.747 142.715 131.952C141.109 133.48 139.257 134.727 137.238 135.641C135.521 136.434 133.719 137.028 131.867 137.413C130.03 137.815 128.153 138.004 126.272 137.976C125.277 137.99 124.307 137.659 123.528 137.04C123.237 136.811 123.015 136.507 122.885 136.16C122.756 135.814 122.724 135.439 122.793 135.075C122.884 134.748 123.039 134.442 123.251 134.176C123.464 133.91 123.727 133.69 124.027 133.529C124.69 133.132 125.444 132.91 126.216 132.883L126.741 132.867C126.916 132.856 127.091 132.829 127.267 132.812C127.617 132.77 127.967 132.741 128.316 132.693C129.011 132.557 129.711 132.46 130.391 132.259C131.082 132.107 131.744 131.858 132.413 131.642C133.066 131.396 133.706 131.117 134.331 130.806C135.747 130.129 137.046 129.23 138.18 128.144C138.414 127.871 138.698 127.623 138.901 127.344L139.206 126.929C139.314 126.802 139.407 126.662 139.482 126.513L139.714 126.093C139.752 126.023 139.796 125.955 139.831 125.886L139.903 125.674C140.028 125.374 140.13 125.066 140.206 124.75C140.9 121.709 140.611 118.526 139.38 115.66C138.234 112.526 136.439 109.37 134.777 105.823C134.012 104.226 133.356 102.58 132.813 100.894C132.213 99.0299 131.867 97.0933 131.783 95.1366C131.706 92.7163 132.144 90.3073 133.068 88.069C133.547 86.9221 134.156 85.8335 134.881 84.8243C135.632 83.7982 136.505 82.8672 137.481 82.052C139.593 80.2696 142.189 79.1574 144.937 78.8577C147.774 78.5686 150.63 79.1844 153.096 80.6168C154.125 81.199 155.011 82.0026 155.69 82.9693C155.985 83.3779 156.23 83.8208 156.418 84.2883C156.595 84.697 156.718 85.127 156.785 85.5675C156.949 86.2381 156.908 86.9422 156.667 87.5892C156.427 88.2361 155.998 88.7962 155.436 89.1971C154.92 89.5259 154.33 89.7211 153.72 89.765C153.104 89.821 152.483 89.7861 151.877 89.6614C150.761 89.4543 149.687 89.0677 148.695 88.5166Z" fill="var(--fill-0, #F9CE46)"/>
<path id="Vector_2" d="M131.783 95.1368C132.034 94.6569 132.346 94.2111 132.711 93.8102C133.04 93.4649 133.42 93.1723 133.838 92.9429C134.592 92.5405 135.462 92.4129 136.3 92.5817C136.944 92.7131 137.56 92.9566 138.12 93.3011C138.672 93.6269 139.194 94.0005 139.681 94.4175C139.792 93.1403 140.183 91.903 140.824 90.7931C141.412 89.7731 142.248 88.9187 143.256 88.3097C143.282 87.6707 143.301 86.9807 143.268 86.2821C143.248 85.5595 143.112 84.8448 142.866 84.1651C142.703 83.7263 142.455 83.3245 142.134 82.9836C141.814 82.6427 141.428 82.3696 141 82.1805C139.878 81.7296 138.633 81.6842 137.481 82.0522C136.505 82.8674 135.632 83.7983 134.881 84.8245C134.156 85.8337 133.548 86.9222 133.069 88.0692C132.144 90.3074 131.706 92.7164 131.783 95.1368ZM141.24 102.18C142.497 105.446 144.256 108.868 145.559 112.764C145.046 112.534 144.493 112.408 143.931 112.393C143.369 112.378 142.81 112.475 142.286 112.678C140.975 113.269 139.936 114.334 139.38 115.66C138.234 112.526 136.439 109.37 134.777 105.823C134.902 105.018 135.229 104.257 135.73 103.614C136.23 102.971 136.887 102.466 137.637 102.148C138.805 101.737 140.08 101.748 141.24 102.18ZM146.355 125.771L146.353 125.78L146.102 126.589C146.021 126.876 145.919 127.157 145.798 127.43C145.569 128.025 145.286 128.599 144.954 129.143C144.649 129.674 144.297 130.177 143.904 130.647L143.331 131.336C143.137 131.561 142.92 131.747 142.715 131.952C141.109 133.48 139.257 134.727 137.238 135.641C137.393 134.773 137.25 133.878 136.83 133.102C136.555 132.601 136.192 132.154 135.759 131.781C135.324 131.4 134.844 131.072 134.331 130.806C135.747 130.129 137.046 129.231 138.18 128.145C138.414 127.872 138.698 127.623 138.901 127.344L139.205 126.929C139.314 126.802 139.407 126.662 139.482 126.513L139.714 126.093C139.752 126.023 139.796 125.955 139.831 125.886L139.903 125.674C140.028 125.375 140.13 125.066 140.206 124.75C140.498 124.627 140.797 124.518 141.101 124.427C141.398 124.33 141.701 124.252 142.008 124.194C142.632 124.069 143.274 124.06 143.901 124.168C144.396 124.259 144.868 124.447 145.289 124.723C145.711 124.998 146.073 125.354 146.355 125.771Z" fill="var(--fill-0, #DB8C00)"/>
<path id="Vector_3" d="M126.543 138.489C126.435 138.489 126.326 138.487 126.216 138.488C125.121 138.488 124.057 138.116 123.2 137.433C122.837 137.143 122.56 136.759 122.4 136.323C122.241 135.887 122.205 135.415 122.296 134.959C122.401 134.565 122.584 134.197 122.836 133.876C123.087 133.556 123.401 133.289 123.759 133.094C124.492 132.651 125.325 132.403 126.181 132.373L126.725 132.356C126.812 132.35 126.915 132.337 127.019 132.325L127.63 132.258C127.836 132.236 128.042 132.214 128.247 132.187L128.79 132.085C129.28 132.006 129.767 131.901 130.246 131.769C130.758 131.646 131.263 131.496 131.759 131.32L132.255 131.155C132.399 131.092 132.587 131.017 132.774 130.942C133.222 130.774 133.659 130.579 134.084 130.358C135.458 129.703 136.719 128.833 137.819 127.781C137.892 127.695 137.999 127.583 138.106 127.472C138.243 127.337 138.371 127.193 138.489 127.042L138.793 126.627C138.876 126.53 138.949 126.424 139.012 126.312L139.419 125.51C139.45 125.415 139.486 125.325 139.521 125.233C139.601 125.045 139.662 124.85 139.705 124.649C140.382 121.702 140.1 118.615 138.901 115.839C138.061 113.691 137.103 111.591 136.031 109.549C135.463 108.415 134.881 107.251 134.314 106.041C133.54 104.423 132.875 102.754 132.324 101.046C131.709 99.139 131.355 97.1568 131.272 95.1541C131.196 92.6602 131.647 90.1783 132.597 87.8709C133.091 86.688 133.718 85.5653 134.467 84.5244C135.243 83.4642 136.145 82.5019 137.153 81.6587C139.346 79.8147 142.036 78.6627 144.884 78.3484C147.83 78.0494 150.795 78.689 153.356 80.1758C154.451 80.7954 155.394 81.6519 156.115 82.6828C156.429 83.1201 156.69 83.594 156.891 84.0941C157.084 84.5378 157.218 85.0048 157.29 85.4832C157.468 86.2521 157.413 87.0565 157.132 87.7941C156.852 88.5317 156.358 89.1693 155.714 89.6259C155.129 90.0004 154.459 90.2233 153.766 90.2745C153.102 90.336 152.434 90.2984 151.781 90.1631C150.607 89.9457 149.476 89.5383 148.433 88.9569L148.412 88.9428L148.363 88.911C148.32 88.8798 148.275 88.8512 148.229 88.8252C147.873 88.5824 147.484 88.3914 147.074 88.258C146.715 88.1332 146.338 88.0693 145.959 88.0689C145.547 88.0564 145.136 88.1067 144.739 88.2182C144.31 88.3432 143.898 88.5226 143.514 88.752C142.582 89.3188 141.808 90.1111 141.264 91.0557C140.663 92.0999 140.297 93.2623 140.19 94.4622C140.104 95.6441 140.193 96.8322 140.454 97.9881C140.773 99.3538 141.195 100.693 141.717 101.995C142.21 103.278 142.777 104.574 143.377 105.946C144.297 108.05 145.249 110.226 146.043 112.601C146.756 114.671 147.226 116.817 147.444 118.995C147.649 121.315 147.447 123.654 146.848 125.905L146.591 126.74C146.503 127.048 146.393 127.35 146.263 127.643L146.092 128.035C145.9 128.525 145.66 128.994 145.374 129.435C145.058 129.985 144.693 130.505 144.284 130.989L143.724 131.662C143.582 131.824 143.431 131.978 143.273 132.124L143.076 132.314C141.43 133.886 139.529 135.168 137.454 136.105C134.029 137.669 130.309 138.481 126.543 138.489ZM126.267 137.464C129.974 137.497 133.644 136.718 137.018 135.18C138.988 134.291 140.793 133.076 142.358 131.585L142.569 131.382C142.7 131.262 142.824 131.136 142.942 131.003L143.511 130.32C143.88 129.881 144.209 129.411 144.494 128.914C144.756 128.509 144.977 128.079 145.153 127.63L145.332 127.22C145.44 126.976 145.532 126.724 145.605 126.467L145.864 125.628C146.43 123.497 146.62 121.283 146.425 119.087C146.215 116.988 145.761 114.921 145.074 112.927C144.294 110.594 143.351 108.439 142.44 106.356C141.836 104.973 141.264 103.667 140.763 102.363C140.221 101.012 139.784 99.6216 139.455 98.2037C139.171 96.9476 139.076 95.6563 139.172 94.3721C139.288 93.0189 139.702 91.7081 140.384 90.5334C141.015 89.4358 141.916 88.5178 143.001 87.8665C143.463 87.5929 143.958 87.3792 144.473 87.2303C144.962 87.1063 145.464 87.0442 145.969 87.0456C146.46 87.0476 146.947 87.131 147.412 87.2921C147.893 87.4478 148.35 87.6718 148.767 87.9575C148.825 87.9887 148.881 88.0235 148.934 88.0618L148.695 88.5169L148.956 88.0768C149.899 88.5996 150.92 88.9655 151.98 89.1602C152.535 89.2758 153.103 89.3083 153.667 89.2565C154.196 89.2208 154.708 89.0534 155.155 88.7696C155.634 88.4217 155.997 87.9382 156.197 87.3818C156.398 86.8254 156.427 86.2216 156.281 85.6485C156.222 85.252 156.111 84.8649 155.951 84.497C155.778 84.0626 155.552 83.651 155.278 83.2714C154.638 82.3632 153.806 81.6075 152.84 81.0587C150.468 79.6813 147.721 79.0888 144.992 79.3656C142.346 79.6583 139.847 80.7294 137.81 82.4434C136.866 83.233 136.021 84.1341 135.294 85.1271C134.592 86.104 134.003 87.1577 133.54 88.2677C132.647 90.4399 132.223 92.7759 132.295 95.1232C132.375 97.0332 132.714 98.9235 133.302 100.742C133.838 102.406 134.486 104.032 135.241 105.608C135.803 106.808 136.382 107.966 136.945 109.091C138.035 111.166 139.008 113.301 139.86 115.484C141.134 118.448 141.428 121.74 140.7 124.883C140.647 125.131 140.572 125.373 140.474 125.606C140.444 125.683 140.414 125.758 140.387 125.838L140.315 126.049C140.282 126.126 140.244 126.201 140.201 126.273L139.93 126.76C139.857 126.91 139.766 127.051 139.658 127.179L139.314 127.646C139.169 127.835 139.011 128.014 138.842 128.182C138.749 128.28 138.654 128.377 138.567 128.478C137.388 129.615 136.034 130.556 134.556 131.265C134.102 131.502 133.634 131.711 133.154 131.892C132.973 131.964 132.791 132.037 132.612 132.113L132.084 132.29C131.565 132.475 131.037 132.631 130.501 132.759C129.998 132.898 129.487 133.009 128.971 133.092L128.414 133.195C128.169 133.23 127.954 133.252 127.737 133.275L127.14 133.341C127.017 133.355 126.894 133.369 126.771 133.378L126.232 133.393C125.552 133.416 124.888 133.611 124.303 133.96C124.06 134.085 123.845 134.259 123.671 134.47C123.497 134.681 123.368 134.925 123.292 135.188C123.243 135.463 123.271 135.746 123.373 136.005C123.475 136.265 123.647 136.492 123.87 136.659C124.553 137.195 125.399 137.479 126.267 137.464Z" fill="var(--fill-0, #DB8C00)"/>
<path id="Vector_4" d="M66.2966 148.221L66.2646 149.18L66.241 150.196L66.2038 152.255L66.1462 156.399L66.0491 164.709L65.9962 168.875L65.9429 171.848C65.9074 172.452 65.8169 173.074 65.7566 173.686C65.7461 173.827 65.7064 173.965 65.64 174.091L65.4851 174.464L65.3301 174.837C65.2634 174.961 65.1878 175.079 65.104 175.192C64.7568 175.652 64.3241 176.042 63.8294 176.338C63.323 176.649 62.7742 176.884 62.2002 177.037C61.5915 177.212 60.9691 177.334 60.3396 177.403C60.0197 177.444 59.6994 177.484 59.3744 177.501L58.8887 177.534L58.4868 177.555C56.9421 177.623 55.4853 177.599 54.0164 177.538C53.6887 177.523 53.4383 177.074 53.4622 176.539C53.4491 176.352 53.4895 176.165 53.5786 176C53.6676 175.835 53.8017 175.699 53.9651 175.608L54.6164 175.409L53.9926 175.199C53.7224 175.107 53.5406 174.695 53.5617 174.224L53.5694 174.044C53.5575 173.862 53.5943 173.68 53.6759 173.516C53.7575 173.353 53.881 173.214 54.0339 173.114L54.674 172.869L54.0774 172.664C53.8194 172.574 53.6494 172.164 53.6706 171.693C53.6998 171.041 54.004 170.52 54.356 170.526C55.6518 170.546 56.9641 170.53 58.1753 170.44C58.2646 170.435 58.3536 170.426 58.4418 170.411C58.5236 170.392 58.6259 170.382 58.6741 170.304C58.6838 170.205 58.6794 170.154 58.6812 170.014L58.6707 168.785L58.6211 164.653L58.5139 156.367L58.4693 152.212L58.4557 150.122L58.4542 149.063L58.4644 147.948L66.2966 148.221Z" fill="var(--fill-0, #F9CE46)"/>
<path id="Vector_5" d="M56.5717 178.17C55.7786 178.17 54.937 178.15 53.9925 178.111C53.3343 178.081 52.8504 177.379 52.8893 176.513C52.8963 176.097 53.0462 175.696 53.3138 175.377C53.0718 175.034 52.9568 174.617 52.9887 174.198L52.9966 174.019C53.0017 173.594 53.1531 173.185 53.4252 172.86C53.1799 172.513 53.064 172.091 53.0975 171.668C53.1425 170.664 53.6574 169.935 54.3651 169.953C55.818 169.975 57.0437 169.949 58.107 169.87L58.0476 164.659L57.8807 149.064L57.8912 147.943C57.8927 147.792 57.9538 147.647 58.0611 147.541C58.1685 147.435 58.3135 147.375 58.4646 147.375H58.4701C58.6221 147.376 58.7674 147.438 58.8739 147.547C58.9804 147.655 59.0394 147.802 59.038 147.954L59.0275 149.069L59.0425 152.209L59.2547 170.009L59.2542 170.123C59.2554 170.203 59.252 170.282 59.2442 170.362C59.2356 170.447 59.2078 170.53 59.1628 170.603C59.0998 170.7 59.0168 170.782 58.9195 170.844C58.8222 170.906 58.7127 170.947 58.5985 170.963L58.5405 170.976C58.4316 170.994 58.3217 171.006 58.2114 171.012C57.1326 171.093 55.8914 171.122 54.4221 171.1C54.3042 171.285 54.2421 171.5 54.2433 171.72C54.2309 171.864 54.2562 172.008 54.3167 172.14L54.8606 172.326C54.9719 172.365 55.0688 172.436 55.1381 172.531C55.2073 172.627 55.2456 172.741 55.2476 172.859C55.2497 172.976 55.2155 173.092 55.1496 173.19C55.0838 173.287 54.9895 173.362 54.8795 173.404L54.2393 173.649C54.182 173.783 54.1492 173.925 54.1424 174.069L54.1344 174.249C54.1215 174.394 54.1503 174.54 54.2173 174.67L54.7991 174.866C54.9143 174.904 55.0141 174.979 55.0843 175.078C55.1545 175.177 55.1914 175.296 55.1897 175.417C55.188 175.539 55.1477 175.656 55.0748 175.753C55.0018 175.851 54.8999 175.922 54.7837 175.957L54.1324 176.156C54.0768 176.286 54.0438 176.424 54.0349 176.564C54.0236 176.704 54.0516 176.844 54.1159 176.968C55.7895 177.036 57.134 177.04 58.4616 176.982L59.3351 176.93C59.6433 176.912 59.9389 176.876 60.2666 176.834C60.864 176.77 61.4549 176.654 62.0326 176.489C62.5592 176.35 63.0627 176.135 63.5275 175.851C63.9599 175.593 64.3384 175.253 64.6422 174.852C64.706 174.767 64.7634 174.678 64.8141 174.585L65.1407 173.799C65.1611 173.762 65.1755 173.721 65.1832 173.679C65.2077 173.411 65.2331 173.191 65.2586 172.97C65.303 172.583 65.348 172.195 65.3705 171.815L65.4759 164.702L65.7236 148.202C65.7248 148.126 65.7413 148.052 65.7719 147.983C65.8026 147.914 65.8468 147.851 65.9021 147.8C65.9573 147.748 66.0223 147.708 66.0934 147.682C66.1644 147.656 66.2399 147.644 66.3154 147.648C66.3907 147.651 66.4647 147.668 66.5333 147.699C66.6019 147.73 66.6636 147.774 66.7151 147.829C66.7665 147.884 66.8066 147.949 66.8331 148.019C66.8596 148.09 66.8719 148.165 66.8693 148.24L66.8144 150.209L66.7195 156.407L66.5162 171.859C66.4913 172.289 66.4438 172.702 66.3974 173.102C66.3729 173.316 66.3484 173.53 66.3274 173.742C66.318 173.919 66.2728 174.093 66.1946 174.252L65.86 175.057C65.8505 175.08 65.8398 175.101 65.828 175.122C65.748 175.269 65.6575 175.409 65.5573 175.543C65.1689 176.058 64.6848 176.494 64.1314 176.825C63.5779 177.165 62.9779 177.423 62.3503 177.591C61.7159 177.773 61.0669 177.901 60.4105 177.972C60.0748 178.015 59.7442 178.056 59.4056 178.074L58.5155 178.128C57.8807 178.155 57.2434 178.17 56.5717 178.17Z" fill="var(--fill-0, #DB8C00)"/>
<path id="Vector_6" d="M86.2699 32.2951C86.2699 32.2951 64.9826 28.039 51.5352 42.5038C36.2707 58.9231 46.7266 87.8116 46.7266 87.8116C46.7266 87.8116 31.2581 113.108 37.95 135.537C44.4555 157.341 61.2218 161.203 82.0555 161.315C102.889 161.427 122.346 158.799 127.993 129.463C132.989 103.501 116.204 76.8888 116.204 76.8888C116.204 76.8888 122.832 40.0918 86.2699 32.2951Z" fill="var(--fill-0, #F9CE46)"/>
<path id="Vector_7" d="M83.2645 161.892C82.8598 161.892 82.4577 161.89 82.053 161.888C59.9055 161.77 43.8358 157.271 37.4001 135.701C31.0562 114.437 44.5614 90.3796 46.0981 87.7481C45.1075 84.8072 36.5633 57.7668 51.1157 42.1134C64.6244 27.5823 86.1657 31.6896 86.3822 31.7329L86.3893 31.7338C121.586 39.2397 117.27 73.6659 116.804 76.7693C118.281 79.2047 133.319 104.822 128.556 129.571C122.892 158.995 103.215 161.891 83.2645 161.892ZM79.0901 32.3073C71.7742 32.3073 60.2723 33.9474 51.9552 42.8946C37.1086 58.8643 47.1621 87.3309 47.2655 87.6164C47.2947 87.6972 47.3054 87.7835 47.2968 87.869C47.2882 87.9545 47.2606 88.0369 47.216 88.1104C47.0623 88.3613 31.9594 113.453 38.4995 135.373C44.7337 156.267 60.4216 160.626 82.0584 160.741C82.4887 160.744 82.92 160.745 83.3476 160.745C103.55 160.745 121.929 157.931 127.43 129.354C132.325 103.921 115.886 77.4586 115.719 77.1943C115.643 77.0731 115.615 76.9279 115.64 76.787C116.533 70.3844 116.107 63.8666 114.386 57.6351C110.574 44.3765 101.076 36.0399 86.1551 32.8569C83.8204 32.47 81.4566 32.2861 79.0901 32.3073Z" fill="var(--fill-0, #DB8C00)"/>
<path id="Vector_8" d="M110.362 148.221C110.325 149.065 110.309 150.076 110.29 151.024L110.244 153.925L110.171 159.75L110.104 165.586L110.067 168.51L109.986 172.715L109.814 173.786C109.717 174.106 109.575 174.386 109.457 174.688C109.321 174.999 109.13 175.283 108.893 175.526C108.661 175.776 108.402 175.999 108.12 176.192C106.861 176.949 105.434 177.383 103.966 177.457C103.582 177.494 103.194 177.522 102.808 177.542L102.066 177.574C101.611 177.588 101.162 177.596 100.718 177.596C99.8295 177.596 98.9573 177.576 98.0817 177.538C97.7539 177.523 97.5035 177.074 97.5274 176.538C97.5143 176.351 97.5547 176.165 97.6438 176C97.7329 175.835 97.8669 175.699 98.0304 175.607L98.6817 175.409L98.058 175.199C97.7877 175.107 97.606 174.694 97.627 174.224L97.6347 174.044C97.6228 173.862 97.6596 173.679 97.7412 173.516C97.8228 173.353 97.9463 173.214 98.0992 173.114L98.7393 172.868L98.1427 172.663C97.8847 172.573 97.7147 172.163 97.7359 171.693C97.7651 171.041 98.0693 170.52 98.4213 170.526C99.1883 170.538 99.9592 170.537 100.712 170.515C101.089 170.505 101.462 170.489 101.826 170.467L102.341 170.432C102.445 170.426 102.548 170.406 102.647 170.374C102.774 170.348 102.744 170.206 102.743 170.11L102.746 170.065L102.746 169.967L102.746 169.768L102.733 168.498L102.698 165.588L102.622 159.755C102.622 159.755 102.51 152.405 102.53 151.306L110.362 148.221Z" fill="var(--fill-0, #F9CE46)"/>
<path id="Vector_9" d="M100.654 178.169C99.8074 178.169 98.9569 178.15 98.0568 178.111C97.3996 178.081 96.9156 177.379 96.9546 176.513C96.9616 176.097 97.1115 175.696 97.3791 175.377C97.1371 175.034 97.0221 174.617 97.054 174.198L97.0619 174.019C97.0669 173.595 97.2183 173.185 97.4905 172.86C97.2453 172.513 97.1294 172.092 97.1628 171.668C97.2078 170.664 97.7462 169.935 98.4304 169.953C99.235 169.966 99.9972 169.963 100.696 169.942C101.068 169.933 101.433 169.917 101.792 169.895L102.172 169.869L102.159 168.505L102.049 159.763C102.044 159.464 101.937 152.392 101.957 151.296C101.959 151.146 102.021 151.003 102.128 150.897C102.235 150.792 102.38 150.733 102.53 150.733H102.54C102.692 150.735 102.837 150.798 102.942 150.908C103.048 151.017 103.106 151.164 103.103 151.316C103.084 152.393 103.195 159.674 103.196 159.747L103.32 170.062L103.318 170.115C103.348 170.288 103.314 170.466 103.222 170.614C103.129 170.763 102.985 170.873 102.817 170.922C102.68 170.966 102.539 170.993 102.396 171.003L101.865 171.039C101.49 171.062 101.111 171.078 100.728 171.089C100.034 171.108 99.2801 171.113 98.4871 171.1C98.3697 171.285 98.3079 171.5 98.3088 171.72C98.2967 171.864 98.322 172.008 98.3822 172.14L98.9261 172.326C99.0374 172.365 99.1342 172.436 99.2034 172.532C99.2725 172.627 99.3107 172.741 99.3127 172.859C99.3147 172.976 99.2805 173.092 99.2146 173.19C99.1488 173.287 99.0545 173.362 98.9446 173.404L98.3048 173.649C98.2475 173.782 98.2147 173.925 98.2079 174.069L98.1999 174.249C98.187 174.394 98.2157 174.54 98.2828 174.67L98.8646 174.866C98.9798 174.904 99.0796 174.979 99.1498 175.078C99.22 175.177 99.2569 175.296 99.2552 175.417C99.2535 175.539 99.2132 175.656 99.1402 175.753C99.0673 175.851 98.9654 175.922 98.8492 175.957L98.1979 176.156C98.1423 176.286 98.1093 176.424 98.1004 176.564C98.0891 176.704 98.1171 176.844 98.1814 176.968C99.0584 177.006 99.876 177.027 100.718 177.022C101.149 177.016 101.6 177.015 102.049 177.001L102.784 176.969C103.157 176.95 103.535 176.923 103.911 176.886C105.281 176.83 106.616 176.43 107.791 175.723C108.04 175.553 108.269 175.356 108.474 175.136C108.66 174.947 108.812 174.727 108.921 174.485C108.967 174.367 109.014 174.258 109.06 174.149C109.129 173.988 109.199 173.828 109.255 173.654L109.414 172.664L109.531 165.579L109.723 150.709C109.739 149.847 109.756 148.955 109.789 148.196C109.792 148.121 109.81 148.047 109.842 147.979C109.874 147.91 109.919 147.849 109.974 147.798C110.03 147.747 110.095 147.708 110.166 147.682C110.236 147.656 110.312 147.645 110.387 147.648C110.462 147.651 110.536 147.669 110.604 147.701C110.672 147.733 110.734 147.778 110.785 147.834C110.835 147.889 110.875 147.954 110.901 148.025C110.926 148.096 110.938 148.171 110.935 148.246C110.902 148.996 110.885 149.879 110.869 150.731L110.817 153.934L110.64 168.518L110.56 172.726C110.559 172.753 110.557 172.78 110.553 172.806L110.381 173.877C110.376 173.903 110.37 173.929 110.363 173.954C110.292 174.174 110.209 174.39 110.114 174.601C110.073 174.699 110.031 174.796 109.991 174.896C109.832 175.274 109.604 175.618 109.319 175.911C109.056 176.194 108.763 176.447 108.444 176.665C107.111 177.487 105.59 177.956 104.025 178.028C103.628 178.065 103.232 178.095 102.837 178.115L102.09 178.147C101.623 178.161 101.156 178.176 100.718 178.169L100.654 178.169Z" fill="var(--fill-0, #DB8C00)"/>
<path id="Vector_10" d="M108.245 73.3552C104.335 65.2245 86.3356 50.877 65.0974 50.877C48.6336 64.0684 47.9159 80.0811 48.9777 92.4108C37.7466 123.372 50.828 141.958 75.6041 143.996C95.7221 145.651 109.767 133.968 110.362 117.772C110.935 102.156 105.115 90.7369 108.245 73.3552Z" fill="var(--fill-0, #FCDD5B)"/>
<path id="Vector_11" d="M69.7251 111.531C69.2907 111.53 68.8713 111.372 68.5451 111.085C68.219 110.798 68.0084 110.402 67.9526 109.971L63.7682 77.7133C63.7371 77.4798 63.7525 77.2425 63.8133 77.0149C63.8742 76.7874 63.9794 76.5741 64.1228 76.3873C64.2663 76.2005 64.4452 76.0438 64.6493 75.9263C64.8534 75.8088 65.0787 75.7327 65.3122 75.7024C65.5458 75.6721 65.7831 75.6882 66.0104 75.7497C66.2377 75.8113 66.4507 75.9172 66.6371 76.0612C66.8234 76.2052 66.9795 76.3846 67.0964 76.5891C67.2133 76.7936 67.2887 77.0191 67.3182 77.2528L71.5026 109.511C71.5329 109.744 71.517 109.981 71.4557 110.207C71.3945 110.434 71.2891 110.647 71.1457 110.833C71.0022 111.02 70.8235 111.176 70.6197 111.293C70.4158 111.41 70.1909 111.486 69.9578 111.516C69.8807 111.526 69.8029 111.531 69.7251 111.531Z" fill="var(--fill-0, #DB8C00)"/>
<path id="Vector_12" d="M85.5253 59.135C86.6334 58.8286 87.8075 58.8577 88.899 59.2186C89.9906 59.5796 90.9506 60.256 91.6577 61.1625C92.3647 62.069 92.7871 63.1649 92.8714 64.3114C92.9557 65.458 92.6981 66.6038 92.1312 67.604C91.5643 68.6042 90.7135 69.4138 89.6865 69.9304C88.6594 70.447 87.5023 70.6475 86.3613 70.5065C85.2203 70.3655 84.1468 69.8893 83.2764 69.1382C82.4061 68.387 81.778 67.3946 81.4716 66.2865C81.2679 65.5508 81.2112 64.7821 81.3047 64.0244C81.3981 63.2667 81.64 62.5349 82.0165 61.8707C82.393 61.2066 82.8966 60.6231 83.4987 60.1537C84.1007 59.6843 84.7894 59.3381 85.5253 59.135Z" fill="var(--fill-0, white)"/>
<path id="Vector_13" d="M74.9487 85.1287C74.4929 85.1251 74.0384 85.0787 73.5912 84.9903C73.4582 84.9648 73.3408 84.8875 73.2647 84.7755C73.1886 84.6634 73.16 84.5258 73.1853 84.3927C73.2106 84.2596 73.2876 84.142 73.3994 84.0657C73.5113 83.9893 73.6489 83.9605 73.782 83.9854C74.2775 84.1494 74.8052 84.1915 75.3203 84.108C75.8355 84.0246 76.3229 83.8181 76.7413 83.506C77.1164 82.9721 77.3641 82.3591 77.4652 81.7144C77.5664 81.0697 77.5183 80.4104 77.3246 79.7872C77.3014 79.6535 77.3323 79.5161 77.4104 79.4052C77.4885 79.2943 77.6075 79.219 77.7412 79.1958C77.8748 79.1726 78.0122 79.2035 78.1231 79.2816C78.234 79.3597 78.3093 79.4787 78.3325 79.6124C78.5677 80.3966 78.6111 81.2258 78.4591 82.0302C78.3071 82.8347 77.9641 83.5909 77.459 84.2352C77.1213 84.544 76.7252 84.7822 76.2941 84.9356C75.863 85.0891 75.4056 85.1547 74.9487 85.1287Z" fill="var(--fill-0, #DB8C00)"/>
<path id="Vector_14" d="M82.2878 84.464C82.7216 84.3239 83.1413 84.1435 83.5414 83.9251C83.6006 83.8933 83.653 83.8503 83.6955 83.7983C83.7381 83.7463 83.77 83.6865 83.7894 83.6222C83.8088 83.5579 83.8154 83.4904 83.8087 83.4236C83.8021 83.3568 83.7823 83.2919 83.7506 83.2327C83.7188 83.1735 83.6758 83.1211 83.6238 83.0786C83.5718 83.0361 83.512 83.0042 83.4477 82.9847C83.3834 82.9653 83.3159 82.9587 83.2491 82.9654C83.1822 82.9721 83.1174 82.9918 83.0582 83.0236C82.6347 83.3285 82.1439 83.5268 81.6274 83.6017C81.1109 83.6765 80.584 83.6256 80.0913 83.4533C79.5733 83.0563 79.1533 82.5458 78.8635 81.9611C78.5738 81.3763 78.422 80.7329 78.4199 80.0802C78.4013 79.9464 78.3304 79.8254 78.2228 79.7436C78.1152 79.6619 77.9796 79.626 77.8457 79.6439C77.7117 79.6618 77.5903 79.7319 77.5079 79.8391C77.4255 79.9462 77.3889 80.0816 77.406 80.2156C77.4167 81.0343 77.6239 81.8384 78.0101 82.5603C78.3963 83.2822 78.9502 83.9008 79.6252 84.364C80.0399 84.5574 80.4892 84.6659 80.9464 84.6831C81.4037 84.7002 81.8598 84.6258 82.2878 84.464ZM111.614 79.3257C111.545 79.3257 111.478 79.312 111.415 79.2852C106.174 77.0677 100.664 75.5487 95.0268 74.7672C94.8922 74.7503 94.7699 74.6806 94.6867 74.5734C94.6035 74.4663 94.5663 74.3305 94.5832 74.1959C94.6021 74.0621 94.6723 73.941 94.779 73.8582C94.8856 73.7754 95.0204 73.7374 95.1546 73.7523C100.885 74.5462 106.485 76.0897 111.813 78.3433C111.922 78.3893 112.011 78.4714 112.066 78.5758C112.121 78.6801 112.139 78.8003 112.115 78.9159C112.092 79.0316 112.029 79.1355 111.938 79.2102C111.846 79.2849 111.732 79.3257 111.614 79.3257ZM109.195 85.4011C109.094 85.401 108.995 85.3711 108.911 85.3151C104.029 82.1302 98.5856 79.9039 92.8711 78.755C92.8048 78.7417 92.7418 78.7153 92.6857 78.6774C92.6297 78.6396 92.5817 78.591 92.5445 78.5344C92.5074 78.4779 92.4818 78.4145 92.4693 78.348C92.4568 78.2816 92.4576 78.2133 92.4716 78.1471C92.4857 78.0809 92.5128 78.0182 92.5512 77.9625C92.5897 77.9069 92.6388 77.8594 92.6958 77.8229C92.7527 77.7863 92.8163 77.7614 92.883 77.7497C92.9496 77.7379 93.0179 77.7394 93.0839 77.7542C98.9253 78.9304 104.489 81.2076 109.479 84.4643C109.571 84.5252 109.64 84.614 109.677 84.7174C109.714 84.8208 109.717 84.9334 109.685 85.0385C109.653 85.1435 109.588 85.2356 109.5 85.3009C109.411 85.3662 109.304 85.4013 109.195 85.4011ZM34.1505 80.3704C34.0278 80.3704 33.9091 80.3262 33.8162 80.2459C33.7233 80.1656 33.6624 80.0546 33.6446 79.9331C33.6268 79.8117 33.6532 79.6878 33.7192 79.5843C33.7851 79.4807 33.8861 79.4043 34.0037 79.369C39.5456 77.7111 45.2815 76.7889 51.0638 76.6261H51.0723C51.2072 76.6261 51.3365 76.6795 51.4323 76.7745C51.528 76.8695 51.5823 76.9984 51.5834 77.1333C51.5845 77.2681 51.5324 77.398 51.4382 77.4945C51.3441 77.5911 51.2156 77.6466 51.0808 77.6489C45.392 77.8095 39.749 78.7173 34.2968 80.3489C34.2494 80.3631 34.2001 80.3704 34.1505 80.3704ZM35.8836 86.8156C35.769 86.8158 35.6576 86.7774 35.5674 86.7067C35.4772 86.636 35.4134 86.537 35.3862 86.4257C35.3589 86.3144 35.3699 86.1971 35.4172 86.0928C35.4646 85.9884 35.5456 85.903 35.6473 85.8502C36.7092 85.2983 37.8159 84.7834 38.9372 84.3199C43.3298 82.5407 47.9588 81.4128 52.6775 80.9721C52.8122 80.959 52.9466 80.9998 53.0512 81.0856C53.1559 81.1714 53.2223 81.2952 53.2359 81.4298C53.2495 81.5644 53.2092 81.6989 53.1238 81.8039C53.0385 81.9089 52.915 81.9758 52.7804 81.99C48.1608 82.4207 43.6289 83.524 39.3283 85.2648C38.2345 85.7173 37.1547 86.2198 36.1188 86.7582C36.0461 86.7959 35.9655 86.8156 35.8836 86.8156Z" fill="var(--fill-0, #DB8C00)"/>
<path id="Vector_15" d="M83.2447 72.9526C83.5566 74.8603 80.0993 80.6702 77.9411 80.7418C75.834 80.8083 71.9419 75.9701 72.1465 73.0754C72.3306 70.508 75.3379 70.9325 77.4859 70.8251C80.8665 70.6512 82.902 70.866 83.2447 72.9526Z" fill="var(--fill-0, #844302)"/>
<path id="Vector_16" d="M62.6793 78.9111C59.3919 78.9081 56.178 77.9377 53.4383 76.1209C50.6986 74.304 48.5542 71.7209 47.2724 68.6937C45.9906 65.6665 45.628 62.329 46.23 59.0971C46.8319 55.8653 48.3717 52.882 50.6573 50.5193C52.943 48.1565 55.8736 46.5186 59.0837 45.8099C62.2938 45.1011 65.6415 45.3528 68.7095 46.5335C71.7776 47.7143 74.4303 49.7718 76.3371 52.4498C78.2438 55.1277 79.3203 58.3076 79.4322 61.5931C79.5835 66.0323 77.9651 70.3497 74.9331 73.5956C71.9012 76.8415 67.7039 78.7501 63.2648 78.9014C63.0693 78.9079 62.8738 78.9111 62.6793 78.9111ZM62.6995 48.6361C62.5446 48.6361 62.3891 48.6388 62.233 48.644C58.668 48.766 55.2954 50.2913 52.8495 52.8879C50.4036 55.4845 49.0825 58.9422 49.1737 62.5082C49.2649 66.0742 50.7611 69.4598 53.3365 71.928C55.912 74.3961 59.3581 75.747 62.9248 75.6866C66.4914 75.6261 69.8898 74.1592 72.3801 71.6051C74.8704 69.0511 76.2509 65.6167 76.2212 62.0497C76.1915 58.4826 74.7539 55.0717 72.2215 52.5595C69.689 50.0473 66.2666 48.6372 62.6995 48.6361Z" fill="var(--fill-0, #DB8C00)"/>
<path id="Vector_17" d="M40.0245 112.093C40.4445 112.207 40.8708 112.297 41.3011 112.363C43.0645 112.682 44.8716 112.675 46.6322 112.341C48.3449 111.99 49.989 111.363 51.5002 110.485C52.8779 109.682 54.1728 108.745 55.366 107.687C56.5032 106.683 57.5331 105.649 58.5104 104.624C60.4576 102.575 62.2007 100.553 63.9844 98.8653C65.4245 97.3295 67.2317 96.1855 69.236 95.5409C69.3532 95.5084 69.462 95.451 69.5549 95.3725C69.6478 95.2941 69.7227 95.1965 69.7744 95.0864C69.9214 94.8282 69.9866 94.5315 69.9613 94.2355C69.9583 94.0118 69.8685 93.7981 69.711 93.6394C69.5534 93.4806 69.3403 93.3893 69.1167 93.3847L68.5859 93.3918C68.4083 93.403 68.2323 93.4355 68.0523 93.4559C68.2179 93.3626 68.3827 93.2501 68.5559 93.1683L69.0857 92.9312C69.1901 92.884 69.2864 92.8207 69.3711 92.7435C69.4568 92.6784 69.5315 92.6001 69.5925 92.5115C69.7194 92.3311 69.7802 92.1125 69.7645 91.8925L69.7495 91.7133C69.7135 91.46 69.5783 91.2313 69.3737 91.0776C69.1691 90.9239 68.9119 90.8577 68.6585 90.8936L67.9684 90.9352C67.7398 90.9597 67.5164 91.0052 67.2876 91.0412C67.5009 90.9394 67.7117 90.8243 67.9336 90.734L68.6151 90.486C68.8751 90.3895 69.1114 90.2385 69.3083 90.0432C69.3916 89.96 69.4566 89.8604 69.4992 89.7507C69.5418 89.641 69.5611 89.5236 69.5558 89.406C69.5236 88.8763 68.8042 88.463 67.9823 88.6503C66.239 89.0219 64.5767 89.7034 63.0743 90.6625C61.7376 91.513 60.4844 92.488 59.3312 93.5744C57.1423 95.6158 55.319 97.7239 53.5109 99.6081C51.9241 101.395 50.0976 102.955 48.0835 104.241C47.246 104.746 46.3313 105.109 45.376 105.317C44.4634 105.487 43.5277 105.492 42.6135 105.331C42.5086 105.307 41.5477 110.585 40.0245 112.093Z" fill="var(--fill-0, #F9CE46)"/>
<path id="Vector_18" d="M43.9773 113.129C43.0498 113.128 42.1242 113.047 41.2106 112.887C40.7648 112.82 40.3234 112.727 39.8886 112.608C39.8205 112.59 39.7566 112.56 39.7005 112.517C39.6444 112.475 39.5972 112.422 39.5616 112.361C39.5261 112.3 39.5029 112.233 39.4933 112.164C39.4838 112.094 39.4881 112.023 39.506 111.955C39.524 111.887 39.5552 111.823 39.5978 111.768C39.6405 111.712 39.6937 111.665 39.7546 111.629C39.8154 111.594 39.8826 111.571 39.9523 111.562C40.022 111.553 40.0929 111.558 40.1608 111.576C40.5611 111.685 40.9674 111.771 41.3776 111.833C43.0805 112.143 44.8258 112.138 46.5268 111.817C48.1834 111.479 49.7737 110.872 51.2349 110.022C52.5822 109.236 53.8484 108.319 55.0153 107.284C55.9785 106.433 56.9381 105.498 58.124 104.255C58.7859 103.558 59.4257 102.864 60.0504 102.184C61.2734 100.855 62.4293 99.6003 63.6178 98.4763C65.1223 96.8679 67.0178 95.6766 69.1196 95.0185C69.147 95.0141 69.2151 94.9822 69.3149 94.8135C69.405 94.6495 69.4449 94.4627 69.4297 94.2762C69.4165 94.0836 69.2866 93.9121 69.1523 93.9165L68.5929 93.9245C68.5231 93.9298 68.4259 93.9439 68.3287 93.9581L68.1122 93.9864C67.9899 93.999 67.8669 93.9696 67.7636 93.9029C67.6603 93.8362 67.5828 93.7363 67.544 93.6196C67.5062 93.5025 67.5101 93.3759 67.5548 93.2613C67.5996 93.1467 67.6825 93.051 67.7896 92.9905L67.9531 92.8933C68.0751 92.819 68.1997 92.7457 68.3269 92.6847L68.8686 92.4426C68.9223 92.4181 68.9718 92.3853 69.0153 92.3454C69.0674 92.3073 69.1133 92.2614 69.1514 92.2093C69.2089 92.1302 69.2375 92.0338 69.2327 91.9362L69.2177 91.7568C69.2127 91.714 69.1993 91.6726 69.1782 91.6349C69.1571 91.5973 69.1288 91.5643 69.0948 91.5377C68.9856 91.4508 68.8466 91.4102 68.7078 91.4245L68 91.467C67.8868 91.4802 67.7508 91.5041 67.6129 91.5279L67.369 91.5677C67.2422 91.5891 67.112 91.5633 67.003 91.495C66.894 91.4268 66.8139 91.3209 66.7778 91.1974C66.7398 91.0751 66.7472 90.9431 66.7987 90.8257C66.8502 90.7084 66.9422 90.6135 67.058 90.5585L67.2541 90.4613C67.4105 90.3836 67.5696 90.3049 67.7322 90.2386L68.4321 89.9833C68.6172 89.9141 68.7858 89.807 68.9269 89.6687C68.9867 89.6104 69.0215 89.5312 69.0241 89.4478C69.0172 89.4151 69.0037 89.3843 68.9844 89.3571C68.9651 89.3299 68.9404 89.3069 68.9119 89.2896C68.7927 89.2137 68.6589 89.1638 68.5191 89.1432C68.3793 89.1227 68.2367 89.1319 68.1007 89.1703C66.4152 89.5275 64.8082 90.1864 63.3571 91.1153C62.0478 91.9466 60.821 92.9012 59.6934 93.966C58.2009 95.3578 56.8807 96.7805 55.6047 98.1564C55.0268 98.7794 54.4612 99.3891 53.8965 99.9767C52.2704 101.796 50.4047 103.386 48.3506 104.704C47.463 105.238 46.4932 105.622 45.4804 105.84C44.505 106.023 43.5046 106.029 42.5272 105.857C42.388 105.833 42.2637 105.756 42.1816 105.641C42.0996 105.526 42.0663 105.383 42.0892 105.244C42.1121 105.105 42.1893 104.98 42.3039 104.897C42.4184 104.815 42.561 104.781 42.7004 104.803C43.5522 104.953 44.424 104.949 45.2745 104.792C46.172 104.596 47.0309 104.254 47.8168 103.778C49.782 102.511 51.5672 100.984 53.1242 99.2389C53.6862 98.6539 54.2473 98.0486 54.8209 97.4301C56.111 96.04 57.4445 94.6033 58.967 93.1831C60.1443 92.0721 61.4249 91.0761 62.7916 90.2087C64.3479 89.2146 66.0706 88.5091 67.8771 88.1258C68.1622 88.0553 68.459 88.0464 68.7478 88.0998C69.0366 88.1531 69.3106 88.2674 69.5517 88.4351C69.7048 88.5422 69.8323 88.6818 69.9252 88.8438C70.0181 89.0059 70.074 89.1865 70.089 89.3727C70.0993 89.562 70.0702 89.7514 70.0036 89.9289C69.937 90.1064 69.8343 90.2682 69.7019 90.404C69.6507 90.4561 69.5976 90.5056 69.5411 90.5533C69.6287 90.6022 69.7113 90.6596 69.7876 90.7247C69.9291 90.8429 70.0456 90.9879 70.1306 91.1514C70.2155 91.3149 70.2672 91.4937 70.2825 91.6773L70.2966 91.8479C70.3226 92.1908 70.2289 92.5321 70.0315 92.8137C69.9746 92.8972 69.9095 92.9748 69.8371 93.0453C70.0282 93.1737 70.1871 93.3447 70.3011 93.5447C70.4152 93.7448 70.4814 93.9685 70.4946 94.1984C70.5273 94.602 70.4367 95.006 70.2348 95.357C70.1459 95.5371 70.0173 95.6947 69.8585 95.8178C69.6997 95.9409 69.5151 96.0263 69.3184 96.0675C67.4202 96.6917 65.7114 97.7875 64.3522 99.2522C63.1902 100.351 62.0467 101.593 60.8369 102.908C60.2078 103.591 59.5645 104.289 58.8973 104.991C57.6893 106.258 56.7102 107.212 55.7196 108.087C54.4993 109.169 53.1747 110.127 51.7652 110.948C50.2041 111.857 48.5047 112.504 46.7344 112.864C45.8264 113.044 44.9029 113.132 43.9773 113.129Z" fill="var(--fill-0, #DB8C00)"/>
<path id="Vector_19" d="M61.0614 56.4625C62.4101 55.7824 63.9301 55.5175 65.4292 55.7013C66.9284 55.8851 68.3394 56.5093 69.4838 57.495C70.6282 58.4807 71.4547 59.7836 71.8586 61.239C72.2625 62.6944 72.2258 64.2369 71.753 65.6714C71.2803 67.1059 70.3928 68.368 69.2028 69.2981C68.0128 70.2282 66.5736 70.7846 65.0674 70.8968C63.5612 71.009 62.0555 70.6721 60.7408 69.9286C59.4261 69.1851 58.3614 68.0684 57.6813 66.7198C57.2293 65.8244 56.9582 64.8488 56.8835 63.8486C56.8087 62.8484 56.9318 61.8433 57.2458 60.8907C57.5597 59.9381 58.0582 59.0567 58.7129 58.2969C59.3677 57.5371 60.1657 56.9137 61.0614 56.4625Z" fill="var(--fill-0, white)"/>
<path id="Vector_20" d="M64.6459 66.5597C66.5204 66.5597 68.0399 65.0401 68.0399 63.1656C68.0399 61.2911 66.5204 59.7715 64.6459 59.7715C62.7714 59.7715 61.2518 61.2911 61.2518 63.1656C61.2518 65.0401 62.7714 66.5597 64.6459 66.5597Z" fill="var(--fill-0, #1E0E00)"/>
<path id="Vector_21" d="M87.2431 67.2568C88.5669 67.2568 89.6401 66.1836 89.6401 64.8598C89.6401 63.5359 88.5669 62.4627 87.2431 62.4627C85.9192 62.4627 84.846 63.5359 84.846 64.8598C84.846 66.1836 85.9192 67.2568 87.2431 67.2568Z" fill="var(--fill-0, #1E0E00)"/>
<path id="Vector_22" d="M90.6595 56.6259C90.5507 56.6259 90.4449 56.5911 90.3573 56.5266C89.3961 56.0094 88.3301 55.7168 87.2395 55.6708C86.1489 55.6249 85.0621 55.8268 84.0608 56.2614C83.9404 56.3231 83.8006 56.3346 83.6717 56.2934C83.5429 56.2522 83.4357 56.1617 83.3735 56.0416C83.3113 55.9215 83.2992 55.7817 83.3398 55.6527C83.3804 55.5238 83.4705 55.4161 83.5903 55.3534C84.7629 54.8394 86.0385 54.6034 87.3174 54.664C88.5963 54.7246 89.8438 55.08 90.9626 55.7025C91.0495 55.7663 91.114 55.856 91.1468 55.9586C91.1797 56.0613 91.1793 56.1717 91.1457 56.2741C91.1121 56.3765 91.0469 56.4657 90.9596 56.5289C90.8723 56.5921 90.7673 56.626 90.6595 56.6259ZM68.2636 54.4907C68.0856 54.4908 67.9121 54.4339 67.7688 54.3283C66.7499 53.7927 65.6245 53.4906 64.4743 53.444C63.3242 53.3974 62.178 53.6074 61.1191 54.0588C60.922 54.1598 60.6929 54.1785 60.4819 54.1109C60.271 54.0434 60.0954 53.8951 59.9936 53.6984C59.8917 53.5017 59.8719 53.2727 59.9384 53.0615C60.005 52.8502 60.1525 52.6739 60.3487 52.5711C61.6843 51.9742 63.1417 51.7 64.6029 51.7707C66.0641 51.8413 67.4882 52.255 68.76 52.978C68.9024 53.0825 69.0081 53.2293 69.062 53.3975C69.116 53.5657 69.1154 53.7466 69.0603 53.9144C69.0052 54.0822 68.8985 54.2283 68.7554 54.3318C68.6123 54.4353 68.4402 54.4909 68.2636 54.4907Z" fill="var(--fill-0, #DB8C00)"/>
<path id="Vector_23" d="M120.688 106.224C120.73 105.751 120.774 105.262 120.818 104.758C121.518 96.7254 114.927 91.0497 114.675 90.8366L114.171 91.0345C116.961 97.6311 115.981 107.576 107.404 106.299C99.3377 105.098 98.3583 90.2655 88.5848 88.5272C88.4134 88.4609 88.2297 88.4325 88.0463 88.4439C87.8629 88.4553 87.6842 88.5062 87.5223 88.5932C87.3605 88.6802 87.2194 88.8012 87.1087 88.9479C86.998 89.0946 86.9204 89.2635 86.8812 89.443C86.8111 90.4519 88.0883 90.5886 88.7681 90.9915C86.4542 90.4061 85.738 92.6412 87.9786 93.3983C86.9353 93.1134 86.0773 93.9094 86.513 94.9664C86.9994 95.6368 87.9875 95.4578 88.6612 96.1436C93.8763 100.558 95.5777 108.843 102.218 112.168C103.975 112.994 105.889 113.433 107.83 113.454C109.772 113.474 111.695 113.077 113.469 112.289C116.561 111.263 119.144 109.093 120.688 106.224Z" fill="var(--fill-0, #F9CE46)"/>
<path id="Vector_24" d="M120.603 107.16L120.605 107.135C120.616 107.025 120.589 106.916 120.53 106.823C120.471 106.731 120.383 106.661 120.279 106.624C120.176 106.588 120.063 106.587 119.959 106.622C119.855 106.658 119.766 106.727 119.705 106.818C118.19 109.161 115.92 110.916 113.271 111.792C111.568 112.557 109.719 112.943 107.853 112.925C105.986 112.908 104.146 112.486 102.457 111.69C98.7724 109.845 96.6028 106.316 94.5052 102.903C93.0674 100.255 91.2242 97.8476 89.0424 95.769C88.6652 95.4189 88.2048 95.1707 87.7049 95.0481C87.4381 94.9948 87.1894 94.8744 86.982 94.6984C86.9359 94.5973 86.9183 94.4856 86.9311 94.3753C86.9438 94.265 86.9864 94.1603 87.0543 94.0724C87.1574 93.9761 87.2852 93.9102 87.4235 93.8821C87.5618 93.854 87.7051 93.8647 87.8377 93.9132C87.9717 93.9497 88.1147 93.9326 88.2363 93.8655C88.3579 93.7984 88.4486 93.6866 88.4891 93.5537C88.5297 93.4209 88.5169 93.2775 88.4535 93.1539C88.39 93.0303 88.281 92.9363 88.1494 92.8918C87.384 92.6333 87.0775 92.1805 87.1701 91.8665C87.2691 91.5299 87.8035 91.2987 88.6371 91.5089C88.7616 91.5404 88.8933 91.5261 89.008 91.4684C89.1228 91.4107 89.2129 91.3136 89.2619 91.1949C89.3108 91.0762 89.3154 90.9438 89.2746 90.822C89.2339 90.7002 89.1506 90.5972 89.0401 90.5318C88.8151 90.4071 88.5808 90.2999 88.3393 90.2111C87.6269 89.928 87.3929 89.7826 87.4142 89.4821C87.4239 89.4156 87.4479 89.3519 87.4847 89.2955C87.5215 89.2391 87.57 89.1914 87.6271 89.1557C87.7544 89.0757 87.898 89.0249 88.0474 89.0071C88.1968 88.9893 88.3483 89.0049 88.491 89.0528C93.3509 89.917 95.9668 94.2384 98.497 98.4175C100.925 102.428 103.218 106.215 107.325 106.827C108.579 107.113 109.889 107.043 111.106 106.625C112.322 106.206 113.398 105.456 114.211 104.458C116.852 101.051 116.438 95.021 114.663 90.8259C114.636 90.7612 114.596 90.7025 114.547 90.6531C114.497 90.6037 114.437 90.5647 114.372 90.5382C114.307 90.5118 114.238 90.4984 114.167 90.4989C114.097 90.4994 114.028 90.5137 113.963 90.5411C113.898 90.5684 113.84 90.6083 113.79 90.6583C113.741 90.7084 113.702 90.7677 113.676 90.8328C113.65 90.8979 113.636 90.9676 113.637 91.0378C113.638 91.108 113.652 91.1774 113.68 91.2421C115.332 95.151 115.756 100.721 113.367 103.804C112.671 104.653 111.749 105.288 110.708 105.636C109.667 105.984 108.549 106.03 107.482 105.77C103.872 105.233 101.705 101.654 99.4108 97.8642C96.7575 93.4817 94.0141 88.9502 88.7218 88.0108C88.4334 87.9279 88.1303 87.9095 87.8341 87.9569C87.5378 88.0044 87.2556 88.1166 87.0076 88.2855C86.822 88.4121 86.6668 88.5782 86.5528 88.7718C86.4389 88.9654 86.3691 89.1818 86.3485 89.4055C86.3254 89.6409 86.3627 89.8784 86.4569 90.0954C86.551 90.3124 86.6989 90.5019 86.8865 90.646C86.5315 90.8464 86.2665 91.1749 86.1456 91.5642C86.0741 91.8343 86.0728 92.1182 86.1418 92.3889C86.2108 92.6597 86.3478 92.9083 86.5399 93.1113C86.4345 93.184 86.3383 93.2694 86.2536 93.3654C86.047 93.6125 85.9151 93.9134 85.8735 94.2328C85.8319 94.5522 85.8822 94.8768 86.0185 95.1686L86.0788 95.2773C86.4114 95.6798 86.8705 95.9578 87.3813 96.0661C87.7295 96.1445 88.0515 96.3116 88.3162 96.551C90.4283 98.5628 92.2099 100.895 93.5952 103.462C95.7712 107.003 98.0218 110.664 101.968 112.639C104.263 113.802 106.858 114.237 109.407 113.886C110.859 113.708 112.282 113.341 113.64 112.794C116.406 111.876 118.792 110.069 120.427 107.655C120.527 107.508 120.588 107.338 120.603 107.16ZM62.7688 32.2815C62.7688 32.2815 77.3901 18.9843 83.3807 15.3051C89.3713 11.6259 96.7543 11.5894 97.5251 18.3358C98.296 25.0823 99.6663 25.9926 106.881 24.8386C114.095 23.6847 115.712 30.3952 115.822 35.8381C115.932 41.281 115.796 54.0013 115.796 54.0013L62.7688 32.2815Z" fill="var(--fill-0, #DB8C00)"/>
<path id="Vector_25" d="M69.9134 25.9619C65.9298 29.407 62.7689 32.2816 62.7689 32.2816C72.8118 34.2509 82.5677 37.4735 91.8077 41.8738C108.308 50.4035 115.865 56.7679 115.865 56.7679C115.865 56.7679 115.831 50.74 115.851 46.8144C102.605 35.9995 86.7746 28.8137 69.9134 25.9619Z" fill="var(--fill-0, #F7B600)"/>
<path id="Vector_26" d="M55.8601 21.8754C55.8601 21.8754 55.9122 22.0378 56.0169 22.3161C56.0652 21.9046 56.1745 21.6555 56.3231 21.7053C59.0614 22.4485 61.5742 23.8557 63.6386 25.8023C65.5574 27.5902 67.1445 29.7037 68.3263 32.0451C62.9745 34.6565 57.9737 37.933 53.4426 41.797C55.8566 35.3673 49.8494 28.8889 55.8601 21.8754Z" fill="var(--fill-0, #F9CE46)"/>
<path id="Vector_27" d="M57.1875 25.135C58.7352 27.6348 59.3877 30.5863 59.0383 33.5056C58.4866 36.8276 60.968 37.3181 61.6116 37.1375C61.8665 37.095 62.1041 36.9809 62.2966 36.8085C62.4891 36.6361 62.6286 36.4125 62.6987 36.1638C64.08 31.4418 61.4467 27.9422 57.1875 25.135Z" fill="var(--fill-0, #DB8C00)"/>
<path id="Vector_28" d="M57.3714 25.4624C58.8731 27.3614 64.2245 30.0821 62.4089 35.9601C64.2611 34.3964 66.3311 33.1106 68.5537 32.1432C67.26 29.7835 65.6011 27.6432 63.6387 25.8018C61.5742 23.8553 59.0614 22.448 56.323 21.7049C55.8245 21.5379 56.0874 23.8385 57.3714 25.4624Z" fill="var(--fill-0, #FCDD5B)"/>
<path id="Vector_29" d="M53.4833 42.3074C53.3998 42.314 53.3159 42.2999 53.239 42.2665C53.1622 42.233 53.0947 42.1812 53.0425 42.1156C52.9904 42.05 52.9552 41.9726 52.94 41.8901C52.9247 41.8077 52.93 41.7228 52.9553 41.6429C53.7047 39.2317 53.7415 36.6554 53.0613 34.2238C52.5227 32.0934 52.3877 29.881 52.6633 27.701C52.8076 25.3174 53.8567 23.0788 55.5963 21.4429C55.7124 21.3472 55.8473 21.2769 55.9922 21.2363C56.1371 21.1957 56.2888 21.1859 56.4378 21.2073C59.1992 21.9595 61.7601 23.3131 63.937 25.1712C66.1139 27.0293 67.8528 29.3459 69.0292 31.955C69.0786 32.081 69.0761 32.2214 69.0223 32.3455C68.9684 32.4696 68.8676 32.5673 68.7419 32.6173C68.6162 32.6672 68.4759 32.6654 68.3515 32.6122C68.2271 32.5589 68.1289 32.4586 68.0784 32.3331C66.9583 29.8958 65.3237 27.73 63.2871 25.9844C61.2505 24.2389 58.86 22.955 56.2801 22.221C54.7054 23.6795 53.7695 25.7003 53.6758 27.8446C53.4205 29.9096 53.552 32.004 54.0637 34.0208C54.7776 36.623 54.7311 39.3752 53.9299 41.9519C53.8992 42.0488 53.8404 42.1345 53.7608 42.1978C53.6813 42.2611 53.5847 42.2993 53.4833 42.3074Z" fill="var(--fill-0, #DB8C00)"/>
<path id="Vector_30" d="M62.1399 36.7635C62.0519 36.7704 61.9636 36.7543 61.8836 36.7169C61.8035 36.6796 61.7346 36.6221 61.6833 36.5502C61.6321 36.4782 61.6004 36.3943 61.5912 36.3064C61.582 36.2186 61.5957 36.1299 61.6309 36.0489C63.606 31.5304 61.3552 29.5579 58.9723 27.4697C57.1843 25.9024 55.3348 24.2814 55.8197 21.6138C55.8446 21.4808 55.9211 21.3631 56.0325 21.2864C56.1439 21.2097 56.2811 21.1803 56.4142 21.2045C56.5473 21.2287 56.6653 21.3046 56.7426 21.4156C56.8198 21.5267 56.85 21.6638 56.8264 21.7969C56.4447 23.8944 57.9289 25.1946 59.647 26.7006C62.0821 28.835 64.8426 31.2543 62.5685 36.4585C62.5314 36.5434 62.4719 36.6166 62.3964 36.6703C62.321 36.7241 62.2323 36.7563 62.1399 36.7635Z" fill="var(--fill-0, #DB8C00)"/>
<path id="Vector_31" d="M119.674 43.002C119.674 43.002 119.559 43.1282 119.348 43.3379C119.475 42.9434 119.479 42.6715 119.323 42.6551C116.523 42.1949 113.653 42.4326 110.967 43.347C108.479 44.1774 106.158 45.4418 104.111 47.0817C107.897 51.6784 111.087 56.7347 113.606 62.1306C114.078 55.2788 122.232 51.8773 119.674 43.002Z" fill="var(--fill-0, #F9CE46)"/>
<path id="Vector_32" d="M117.113 45.416C114.668 47.0482 112.849 49.4628 111.956 52.2639C111.079 55.5153 108.618 54.9319 108.108 54.5005C107.893 54.3561 107.724 54.1537 107.621 53.917C107.517 53.6803 107.483 53.4189 107.522 53.1635C108.225 48.2941 112.073 46.2027 117.113 45.416Z" fill="var(--fill-0, #DB8C00)"/>
<path id="Vector_33" d="M116.81 45.6388C114.656 46.7434 108.658 46.9982 107.87 53.0996C106.834 50.9083 105.484 48.8794 103.864 47.077C106.02 45.4669 108.417 44.208 110.967 43.3469C113.653 42.4326 116.523 42.1949 119.323 42.6551C119.846 42.7101 118.652 44.6942 116.81 45.6388Z" fill="var(--fill-0, #FCDD5B)"/>
<path id="Vector_34" d="M113.099 62.0682C113.439 59.3914 114.539 56.8681 116.268 54.7967C117.571 53.1741 118.56 51.3231 119.184 49.3384C119.989 47.3485 119.976 45.1216 119.148 43.1411C116.496 42.7383 113.789 42.9145 111.211 43.6576C108.634 44.4006 106.248 45.6929 104.218 47.4456C104.12 47.539 103.989 47.5897 103.853 47.5866C103.718 47.5835 103.589 47.5269 103.496 47.4292C103.402 47.3315 103.351 47.2007 103.353 47.0653C103.356 46.9299 103.412 46.8011 103.509 46.7071C105.662 44.8214 108.206 43.4353 110.958 42.648C113.709 41.8608 116.601 41.6919 119.426 42.1535C119.57 42.1957 119.704 42.2677 119.819 42.3647C119.934 42.4617 120.027 42.5817 120.093 42.7169C120.997 44.9272 121.023 47.3993 120.165 49.6279C119.511 51.7257 118.47 53.6826 117.096 55.3974C115.468 57.3275 114.433 59.6868 114.114 62.1915C114.098 62.3261 114.028 62.4487 113.922 62.5323C113.815 62.6159 113.679 62.6537 113.545 62.6373C113.41 62.621 113.288 62.5518 113.204 62.4451C113.12 62.3384 113.083 62.2028 113.099 62.0682Z" fill="var(--fill-0, #DB8C00)"/>
<path id="Vector_35" d="M107.782 53.9418C107.859 53.9845 107.946 54.0066 108.035 54.0058C108.123 54.005 108.209 53.9813 108.286 53.9371C108.362 53.8929 108.426 53.8297 108.471 53.7536C108.516 53.6775 108.54 53.5911 108.542 53.5028C108.62 48.5721 111.486 47.7115 114.521 46.8003C116.798 46.1164 119.153 45.409 119.819 42.7806C119.851 42.6494 119.83 42.5107 119.761 42.3948C119.691 42.279 119.579 42.1953 119.448 42.1621C119.317 42.129 119.178 42.149 119.062 42.2178C118.945 42.2867 118.861 42.3987 118.827 42.5295C118.304 44.5963 116.414 45.1634 114.226 45.8206C111.125 46.7521 107.609 47.8078 107.518 53.4864C107.517 53.579 107.541 53.6703 107.587 53.7506C107.634 53.8308 107.701 53.8968 107.782 53.9418Z" fill="var(--fill-0, #DB8C00)"/>
<path id="Vector_36" d="M100.941 45.2077C75.2881 30.549 40.5709 23.2721 36.1186 35.8147C34.2263 41.1455 37.387 46.6654 45.326 53.0644C46.1088 51.0505 47.0615 49.1069 48.174 47.2546C55.0629 37.541 81.8669 42.3695 99.7236 53.5231C110.946 60.5328 116.588 68.8638 116.345 74.9609C116.345 74.9674 116.291 76.4799 116.247 77.3705C120.245 76.5355 123.109 74.9148 124.204 72.6328C127.124 66.5443 118.697 55.3539 100.941 45.2077Z" fill="var(--fill-0, #DB8C00)"/>
</g>
</svg>
